<svg id="svg" version="1.1" xmlns="http://www.w3.org/2000/svg" xmlns:xlink="http://www.w3.org/1999/xlink" width="400" height="315.4471544715447" viewBox="0, 0, 400,315.4471544715447"><g id="svgg"><path id="path1" d="M119.558 159.011 L 119.558 288.685 120.426 288.586 L 121.293 288.486 121.373 158.912 L 121.452 29.338 120.505 29.338 L 119.558 29.338 119.558 159.011 M177.503 94.211 C 177.149 94.565,177.244 185.802,177.601 187.733 C 179.250 196.673,187.875 203.132,198.186 203.149 L 201.577 203.155 201.577 195.899 L 201.577 188.644 198.565 188.644 C 195.113 188.644,194.184 188.302,192.840 186.539 L 191.956 185.380 191.798 139.772 L 191.640 94.164 184.680 94.079 C 180.852 94.033,177.622 94.092,177.503 94.211 M204.203 94.243 C 203.952 94.409,205.482 96.702,208.935 101.337 L 214.038 108.186 222.476 108.194 C 227.118 108.198,230.915 108.118,230.915 108.016 C 230.915 107.913,228.716 104.897,226.028 101.312 C 223.340 97.728,221.093 94.653,221.033 94.479 C 220.905 94.102,204.762 93.875,204.203 94.243 M76.025 109.456 C 68.808 110.385,63.866 117.686,65.653 124.781 C 66.047 126.347,65.997 126.332,69.034 125.811 C 73.741 125.004,79.128 127.549,81.584 131.740 C 82.509 133.319,82.574 133.338,84.161 132.518 C 89.136 129.947,91.646 122.149,89.187 116.899 C 86.659 111.501,81.742 108.720,76.025 109.456 M214.905 116.950 L 211.041 117.054 211.041 159.947 L 211.041 202.839 218.298 202.839 L 225.554 202.839 225.474 159.858 L 225.394 116.877 222.082 116.861 C 220.260 116.853,217.031 116.893,214.905 116.950 M246.057 117.016 C 240.230 118.108,235.477 121.712,232.924 126.972 C 231.093 130.743,230.887 132.139,230.987 140.090 L 231.073 146.845 238.013 146.845 L 244.953 146.845 245.110 140.379 C 245.209 136.336,245.405 133.675,245.633 133.281 C 247.434 130.171,252.367 130.237,253.984 133.393 C 254.431 134.265,254.817 149.464,254.431 151.002 C 254.250 151.721,254.169 151.735,250.231 151.737 C 239.787 151.742,233.819 155.651,231.712 163.868 C 231.120 166.178,231.013 184.823,231.575 187.876 C 232.844 194.778,238.639 200.905,245.571 202.675 C 247.072 203.058,249.602 203.155,258.110 203.155 L 268.770 203.155 268.760 169.164 C 268.754 149.749,268.623 134.191,268.453 132.881 C 267.065 122.198,256.883 114.985,246.057 117.016 M131.311 152.918 C 131.407 186.979,131.426 187.898,132.043 189.590 C 135.039 197.801,141.117 202.249,149.527 202.386 L 152.839 202.440 152.935 203.901 L 153.031 205.363 160.270 205.363 L 167.508 205.363 167.508 161.672 L 167.508 117.981 160.252 117.981 L 152.997 117.981 152.997 151.272 C 152.997 187.513,153.068 186.070,151.234 187.272 C 150.116 188.004,148.136 187.961,147.265 187.185 C 145.697 185.788,145.741 186.839,145.741 151.272 L 145.741 117.981 138.477 117.981 L 131.212 117.981 131.311 152.918 M91.571 126.426 C 90.973 129.640,88.954 132.565,86.011 134.481 C 84.555 135.429,84.493 135.528,84.685 136.586 C 85.358 140.300,85.412 141.321,85.028 143.157 C 84.516 145.613,83.696 145.426,94.950 145.426 L 104.360 145.426 105.008 144.085 C 109.136 135.539,102.523 124.637,93.194 124.609 L 91.909 124.606 91.571 126.426 M65.266 129.134 C 59.053 131.689,55.007 138.762,56.796 143.937 L 57.256 145.268 69.621 145.351 L 81.987 145.433 82.317 144.247 C 84.904 134.932,74.211 125.454,65.266 129.134 M61.094 148.475 C 60.978 148.591,60.883 149.585,60.883 150.683 L 60.883 152.681 81.230 152.681 L 101.577 152.681 101.577 150.473 L 101.577 148.265 81.441 148.265 C 70.365 148.265,61.209 148.360,61.094 148.475 M64.804 156.703 C 65.262 158.658,66.611 162.769,66.841 162.912 C 66.977 162.995,67.700 162.441,68.447 161.679 L 69.807 160.294 68.154 158.065 C 66.286 155.545,64.348 154.757,64.804 156.703 M68.454 156.040 C 68.454 156.152,68.969 156.872,69.598 157.640 L 70.743 159.037 71.832 157.988 C 73.919 155.982,73.862 155.836,70.989 155.836 C 69.595 155.836,68.454 155.928,68.454 156.040 M76.341 156.023 C 76.341 156.201,76.945 157.033,78.436 158.913 L 79.113 159.764 80.645 158.071 C 81.487 157.139,82.224 156.255,82.282 156.106 C 82.340 155.958,81.027 155.836,79.364 155.836 C 77.701 155.836,76.341 155.920,76.341 156.023 M84.543 156.332 C 84.543 156.618,85.139 157.582,85.868 158.474 C 86.597 159.365,87.251 160.166,87.321 160.252 C 87.563 160.552,90.555 156.955,90.463 156.475 C 90.320 155.727,84.543 155.588,84.543 156.332 M93.123 156.215 C 92.545 156.792,92.661 157.114,94.116 158.991 C 96.025 161.451,96.995 160.949,97.624 157.177 L 97.847 155.836 95.674 155.836 C 94.405 155.836,93.344 155.993,93.123 156.215 M73.411 158.292 C 71.487 160.245,71.625 160.901,74.688 164.353 C 74.856 164.542,77.909 161.157,77.915 160.778 C 77.917 160.567,75.102 156.782,74.942 156.782 C 74.917 156.782,74.228 157.462,73.411 158.292 M81.683 159.010 C 79.739 161.229,79.684 160.844,82.402 164.112 L 83.259 165.142 84.675 163.565 C 86.431 161.610,86.436 161.388,84.779 159.202 C 83.153 157.056,83.382 157.070,81.683 159.010 M89.935 159.806 C 89.017 160.811,88.417 161.727,88.540 161.936 C 89.046 162.797,91.335 165.615,91.528 165.615 C 91.829 165.615,94.637 162.450,94.637 162.111 C 94.637 161.861,91.807 158.044,91.621 158.044 C 91.580 158.044,90.821 158.837,89.935 159.806 M69.003 163.141 C 67.199 165.160,67.210 164.873,68.849 167.171 C 70.482 169.462,70.555 169.470,72.190 167.530 C 73.935 165.461,73.930 165.427,71.290 162.381 L 70.498 161.467 69.003 163.141 M77.342 163.880 C 76.402 164.909,75.799 165.826,75.925 166.037 C 76.546 167.081,78.658 169.716,78.873 169.716 C 79.174 169.716,82.019 166.590,82.019 166.259 C 82.019 166.041,80.943 164.533,79.571 162.827 L 78.978 162.090 77.342 163.880 M85.611 164.536 C 83.932 166.502,83.918 166.292,85.922 168.997 C 87.151 170.655,87.108 170.657,88.805 168.849 C 90.556 166.981,90.555 166.714,88.784 164.540 C 87.054 162.417,87.422 162.417,85.611 164.536 M93.890 165.320 L 92.432 166.942 93.083 167.856 C 93.996 169.138,94.082 169.065,94.868 166.344 C 95.733 163.352,95.695 163.312,93.890 165.320 M254.604 175.552 C 254.774 184.118,254.739 185.140,254.239 186.330 C 252.897 189.524,248.733 189.824,246.493 186.888 L 245.584 185.697 245.491 176.458 C 245.377 165.005,244.957 165.871,250.562 166.000 L 254.416 166.088 254.604 175.552 M73.166 168.502 C 71.336 170.628,71.350 170.426,72.887 172.418 C 74.646 174.699,74.501 174.675,76.173 172.954 C 77.908 171.170,77.886 170.677,75.975 168.394 C 74.451 166.574,74.840 166.559,73.166 168.502 M81.431 169.256 L 79.842 170.995 80.444 172.012 C 80.776 172.571,81.467 173.525,81.980 174.132 L 82.914 175.237 84.226 173.975 C 86.298 171.983,86.328 171.821,84.961 169.940 C 83.025 167.275,83.209 167.311,81.431 169.256 M89.826 169.827 C 88.019 171.926,88.030 171.702,89.625 173.826 C 91.259 176.000,91.800 176.028,92.472 173.975 C 93.500 170.836,93.494 170.589,92.361 169.282 L 91.325 168.088 89.826 169.827 M69.869 172.247 C 69.703 172.516,71.130 177.474,71.492 177.890 C 71.655 178.077,72.874 176.924,73.243 176.234 C 73.490 175.773,73.360 175.402,72.634 174.496 C 72.127 173.862,71.541 173.024,71.333 172.634 C 70.937 171.890,70.209 171.698,69.869 172.247 M77.137 173.982 C 75.467 175.937,75.465 175.881,77.291 178.322 L 78.617 180.096 80.148 178.455 C 82.033 176.435,82.034 176.406,80.265 174.109 C 78.541 171.868,78.930 171.884,77.137 173.982 M85.365 174.760 C 83.686 176.555,83.714 176.786,85.924 179.338 L 87.017 180.599 88.329 179.338 C 90.400 177.344,90.412 177.248,88.885 175.107 C 87.245 172.807,87.196 172.802,85.365 174.760 M73.063 178.514 L 71.865 179.741 72.562 181.652 C 73.728 184.852,74.194 185.031,76.053 182.997 C 76.905 182.066,77.603 181.238,77.603 181.158 C 77.603 180.932,76.256 179.095,75.635 178.474 C 75.329 178.168,75.079 177.776,75.079 177.603 C 75.079 176.943,74.216 177.333,73.063 178.514 M81.230 179.389 C 79.549 181.348,79.546 181.461,81.126 183.436 C 82.809 185.540,82.871 185.543,84.522 183.584 C 86.027 181.799,86.022 181.706,84.303 179.476 C 82.844 177.583,82.781 177.581,81.230 179.389 M89.569 180.032 C 88.044 181.716,87.942 181.928,88.317 182.630 C 88.926 183.768,89.541 183.387,90.078 181.539 C 90.720 179.333,90.579 178.916,89.569 180.032 M76.834 184.238 C 76.017 185.111,75.395 185.928,75.450 186.052 C 75.885 187.018,78.083 189.905,78.385 189.905 C 78.735 189.905,80.974 187.701,81.492 186.845 C 81.721 186.467,79.062 182.650,78.569 182.650 C 78.432 182.650,77.651 183.364,76.834 184.238 M85.223 184.836 C 83.611 186.747,83.611 186.776,85.212 188.851 C 86.895 191.033,87.123 190.984,88.003 188.249 C 88.407 186.991,88.791 185.864,88.856 185.744 C 88.991 185.493,87.117 183.281,86.767 183.281 C 86.639 183.281,85.944 183.981,85.223 184.836 M75.293 190.396 C 76.067 192.698,76.115 192.761,76.691 192.240 C 77.517 191.492,77.452 191.167,76.141 189.484 C 74.548 187.439,74.365 187.636,75.293 190.396 M81.684 188.722 C 81.312 189.113,80.657 189.885,80.228 190.439 L 79.448 191.446 80.796 193.357 C 81.537 194.408,82.298 195.268,82.487 195.268 C 83.153 195.268,85.892 192.197,85.625 191.749 C 83.702 188.534,82.639 187.718,81.684 188.722 M77.297 193.677 L 76.632 194.610 77.327 197.068 C 78.238 200.292,78.256 200.302,79.856 198.575 C 81.654 196.634,81.644 196.815,80.073 194.657 C 78.503 192.501,78.209 192.397,77.297 193.677 M84.704 195.265 C 83.588 196.407,83.518 196.580,83.861 197.334 C 84.408 198.534,84.931 198.144,85.565 196.061 C 86.261 193.774,86.208 193.725,84.704 195.265 M80.496 200.010 L 78.815 201.899 79.652 204.498 C 81.381 209.863,81.235 209.867,82.957 204.404 L 84.250 200.304 83.413 199.205 C 82.353 197.816,82.481 197.780,80.496 200.010 M141.562 218.829 C 140.885 219.006,140.621 219.963,140.752 221.767 C 140.881 223.544,142.289 224.253,143.273 223.038 C 144.051 222.078,144.023 221.136,143.218 221.136 C 142.536 221.136,142.351 221.636,142.959 221.838 C 143.524 222.026,143.006 223.028,142.344 223.028 C 140.815 223.028,140.328 219.741,141.802 219.371 C 142.257 219.257,142.795 219.338,143.064 219.562 C 143.322 219.776,143.533 219.843,143.533 219.711 C 143.533 219.451,142.530 218.615,142.271 218.659 C 142.185 218.673,141.865 218.750,141.562 218.829 M145.696 219.789 C 145.463 222.254,145.810 223.491,146.767 223.601 C 147.244 223.656,147.634 223.550,147.634 223.365 C 147.634 223.180,147.350 223.028,147.003 223.028 C 146.161 223.028,146.090 221.256,146.924 221.038 C 147.450 220.900,147.450 220.892,146.924 220.857 C 146.050 220.799,146.176 219.243,147.056 219.243 C 147.922 219.243,147.540 218.831,146.552 218.699 C 145.901 218.612,145.795 218.747,145.696 219.789 M158.833 218.927 C 158.726 219.101,158.788 219.243,158.972 219.243 C 159.173 219.243,159.306 220.061,159.306 221.293 C 159.306 222.450,159.444 223.344,159.621 223.344 C 159.797 223.344,159.937 222.499,159.937 221.441 C 159.937 220.044,160.062 219.490,160.408 219.358 C 160.668 219.258,160.801 219.050,160.705 218.894 C 160.468 218.511,159.075 218.536,158.833 218.927 M163.090 219.055 C 162.408 219.737,162.713 223.025,163.486 223.313 C 164.898 223.838,165.931 222.918,165.931 221.136 C 165.931 219.234,164.188 217.957,163.090 219.055 M171.767 218.862 C 170.866 219.060,170.673 219.500,170.667 221.361 C 170.661 223.501,172.052 224.433,173.336 223.149 C 173.984 222.501,173.751 222.242,172.921 222.686 C 171.801 223.286,171.293 222.800,171.293 221.128 C 171.293 219.760,171.377 219.583,172.145 219.327 C 173.081 219.015,172.776 218.640,171.767 218.862 M180.631 219.117 C 180.385 219.758,180.386 222.518,180.633 223.160 C 181.138 224.475,181.575 223.587,181.474 221.451 C 181.388 219.635,181.456 219.243,181.852 219.243 C 182.641 219.243,182.399 218.755,181.577 218.687 C 181.137 218.650,180.741 218.831,180.631 219.117 M188.595 218.824 C 188.002 218.981,187.661 221.389,188.045 222.713 C 188.179 223.173,188.285 223.280,188.301 222.968 C 188.347 222.061,189.014 221.953,189.663 222.746 C 190.045 223.215,190.216 223.301,190.111 222.973 C 190.019 222.682,190.089 221.915,190.268 221.268 C 190.494 220.448,190.491 219.867,190.256 219.352 C 189.926 218.629,189.655 218.542,188.595 218.824 M197.476 218.921 C 196.783 219.359,196.943 222.720,197.684 223.261 C 198.671 223.983,200.000 223.538,200.000 222.485 C 200.000 222.159,199.838 222.174,199.256 222.555 C 198.091 223.318,197.476 222.875,197.476 221.271 C 197.476 219.701,198.361 218.853,199.239 219.581 C 199.492 219.792,199.803 219.861,199.928 219.735 C 200.571 219.093,198.363 218.360,197.476 218.921 M202.524 219.243 C 201.559 220.207,201.643 222.535,202.666 223.205 C 203.621 223.831,204.732 223.543,204.732 222.669 C 204.732 222.086,204.692 222.077,204.220 222.548 C 203.281 223.488,202.690 223.019,202.587 221.251 C 202.484 219.481,202.968 218.952,204.124 219.571 C 204.592 219.821,204.732 219.793,204.732 219.445 C 204.732 219.023,204.097 218.612,203.444 218.612 C 203.285 218.612,202.871 218.896,202.524 219.243 M207.333 218.976 C 206.628 219.681,206.827 222.946,207.600 223.360 C 209.350 224.296,210.544 222.504,209.902 219.905 C 209.597 218.670,208.159 218.150,207.333 218.976 M216.719 218.894 C 216.719 219.049,216.925 219.254,217.176 219.351 C 217.482 219.468,217.671 220.131,217.747 221.356 L 217.862 223.186 217.921 221.362 C 217.964 220.073,218.120 219.485,218.454 219.357 C 219.305 219.030,218.951 218.612,217.823 218.612 C 217.216 218.612,216.719 218.739,216.719 218.894 M238.538 219.022 C 238.270 219.345,238.434 219.432,239.316 219.432 C 240.310 219.432,240.371 219.387,239.872 219.022 C 239.564 218.797,239.214 218.612,239.095 218.612 C 238.976 218.612,238.725 218.797,238.538 219.022 M251.320 218.853 C 251.011 219.403,251.096 223.302,251.422 223.503 C 251.614 223.622,252.153 223.614,252.620 223.486 L 253.470 223.253 252.683 223.048 C 251.715 222.796,251.468 221.796,252.234 221.235 C 252.770 220.844,252.771 220.820,252.247 220.820 C 251.228 220.820,251.749 219.430,252.839 219.238 C 253.360 219.147,253.644 218.994,253.470 218.898 C 252.978 218.627,251.465 218.596,251.320 218.853 M260.252 218.901 C 260.252 219.060,260.428 219.249,260.644 219.321 C 260.871 219.397,261.115 220.296,261.226 221.476 L 261.418 223.502 261.466 221.520 C 261.501 220.086,261.644 219.489,261.986 219.358 C 262.245 219.258,262.378 219.050,262.282 218.894 C 262.052 218.522,260.252 218.528,260.252 218.901 M264.849 219.108 C 263.906 220.051,264.302 223.174,265.401 223.462 C 266.665 223.792,267.508 222.878,267.508 221.177 C 267.508 218.978,266.086 217.871,264.849 219.108 M131.336 221.136 C 131.336 222.437,131.392 222.969,131.460 222.319 C 131.528 221.668,131.528 220.603,131.460 219.953 C 131.392 219.302,131.336 219.834,131.336 221.136 M133.880 221.132 C 133.913 223.625,134.237 224.070,135.586 223.479 C 136.007 223.294,135.919 223.205,135.174 223.056 C 134.264 222.875,134.220 222.787,134.037 220.819 L 133.847 218.770 133.880 221.132 M154.890 219.008 C 154.890 219.053,154.756 219.557,154.592 220.128 C 154.320 221.076,154.348 221.150,154.907 220.972 C 155.335 220.836,155.521 220.926,155.521 221.268 C 155.521 221.581,155.279 221.732,154.855 221.684 C 154.414 221.634,154.099 221.848,153.919 222.319 C 153.753 222.752,153.767 223.028,153.953 223.028 C 154.121 223.028,154.259 222.886,154.259 222.713 C 154.259 222.254,156.070 222.326,156.258 222.792 C 156.666 223.804,156.408 221.707,155.964 220.403 C 155.579 219.275,154.890 218.379,154.890 219.008 M178.123 219.874 C 177.866 221.160,176.616 221.209,176.120 219.953 C 175.822 219.200,175.776 219.377,175.767 221.293 C 175.758 223.438,175.769 223.470,176.155 222.397 C 176.737 220.777,177.748 220.729,178.165 222.301 C 178.464 223.429,178.486 223.362,178.516 221.215 C 178.551 218.769,178.428 218.349,178.123 219.874 M193.425 219.471 C 193.262 219.779,192.982 220.564,192.804 221.215 L 192.480 222.397 193.532 222.397 C 194.111 222.397,194.656 222.575,194.744 222.792 C 194.831 223.009,194.914 222.733,194.928 222.180 C 194.941 221.626,194.811 221.085,194.637 220.978 C 194.464 220.871,194.322 220.445,194.322 220.032 C 194.322 219.067,193.809 218.746,193.425 219.471 M211.987 220.644 C 211.987 222.546,212.508 223.314,212.699 221.694 L 212.820 220.662 213.402 222.012 C 213.721 222.755,214.137 223.310,214.326 223.246 C 214.714 223.115,214.820 220.245,214.470 219.355 C 214.297 218.914,214.234 219.018,214.218 219.776 C 214.186 221.224,213.655 221.346,213.036 220.048 C 212.288 218.479,211.987 218.649,211.987 220.644 M221.944 219.212 C 221.724 219.567,220.813 222.897,220.830 223.280 C 220.836 223.402,221.043 223.234,221.290 222.907 C 221.626 222.464,221.979 222.361,222.679 222.501 L 223.618 222.689 223.137 221.045 C 222.605 219.228,222.261 218.699,221.944 219.212 M228.767 221.136 C 228.777 223.497,228.778 223.499,229.071 221.965 C 229.256 220.996,229.252 220.122,229.061 219.599 C 228.820 218.942,228.759 219.262,228.767 221.136 M243.134 220.468 C 242.474 222.326,242.400 223.341,242.965 222.776 C 243.462 222.279,244.704 222.290,244.883 222.792 C 245.364 224.138,245.250 222.517,244.750 220.899 C 244.017 218.524,243.841 218.477,243.134 220.468 M247.382 221.147 C 247.479 223.575,248.235 224.446,249.311 223.371 C 249.557 223.125,249.413 223.028,248.801 223.028 C 248.333 223.028,247.940 222.993,247.929 222.950 C 247.917 222.906,247.836 222.021,247.749 220.982 C 247.519 218.263,247.272 218.375,247.382 221.147 M255.521 220.997 C 255.521 222.296,255.638 222.993,255.836 222.871 C 256.009 222.763,256.153 222.223,256.154 221.669 L 256.157 220.662 256.961 222.003 C 258.017 223.765,258.052 223.732,257.997 221.057 C 257.955 219.048,257.926 218.942,257.754 220.189 L 257.560 221.609 256.857 220.505 C 256.470 219.897,256.153 219.294,256.153 219.164 C 256.152 219.034,256.009 218.927,255.836 218.927 C 255.658 218.927,255.521 219.827,255.521 220.997 M149.842 221.451 L 149.842 223.659 150.770 223.659 C 151.280 223.659,151.786 223.517,151.893 223.344 C 152.003 223.165,151.738 223.028,151.280 223.028 C 150.504 223.028,150.473 222.956,150.473 221.136 C 150.473 220.084,150.333 219.243,150.158 219.243 C 149.977 219.243,149.842 220.189,149.842 221.451 M165.108 219.742 C 165.773 221.475,165.189 223.028,163.874 223.028 C 163.270 223.028,162.893 220.335,163.409 219.713 C 163.922 219.096,164.866 219.112,165.108 219.742 M189.843 220.388 C 189.912 221.087,189.782 221.431,189.396 221.579 C 188.536 221.909,188.202 220.932,188.618 219.299 C 188.766 218.713,189.767 219.603,189.843 220.388 M209.272 219.742 C 209.793 221.100,209.368 223.028,208.547 223.028 C 206.652 223.028,206.824 219.303,208.720 219.252 C 208.919 219.247,209.167 219.467,209.272 219.742 M231.283 221.372 L 231.230 223.659 232.158 223.659 C 233.368 223.659,233.708 223.101,232.576 222.971 C 231.755 222.877,231.693 222.759,231.520 220.978 L 231.336 219.085 231.283 221.372 M266.719 221.136 C 266.719 223.541,265.213 223.863,265.043 221.494 C 264.913 219.685,265.137 219.176,266.008 219.300 C 266.648 219.390,266.719 219.576,266.719 221.136 M239.073 221.131 C 240.364 222.334,240.546 223.028,239.571 223.028 C 239.321 223.028,239.117 223.170,239.117 223.344 C 239.117 223.816,239.932 223.724,240.364 223.203 C 240.962 222.483,240.620 221.453,239.590 220.877 C 239.069 220.585,238.596 220.241,238.538 220.110 C 238.481 219.980,238.274 219.874,238.079 219.874 C 237.884 219.874,238.332 220.440,239.073 221.131 M193.998 221.585 C 193.574 222.009,193.259 221.580,193.511 220.921 C 193.692 220.449,193.768 220.435,194.010 220.826 C 194.182 221.105,194.178 221.406,193.998 221.585 M222.713 221.312 C 222.713 221.777,222.337 221.916,221.999 221.578 C 221.714 221.294,222.106 220.482,222.431 220.683 C 222.586 220.779,222.713 221.062,222.713 221.312 M244.164 221.312 C 244.164 221.562,244.022 221.767,243.849 221.767 C 243.675 221.767,243.533 221.474,243.533 221.117 C 243.533 220.760,243.675 220.555,243.849 220.662 C 244.022 220.770,244.164 221.062,244.164 221.312 " stroke="none" fill="#B9C3A2" fill-rule="evenodd"></path></g></svg>